<svg width="20" height="20" viewBox="0 0 20 20" fill="none" xmlns="http://www.w3.org/2000/svg">
<g clip-path="url(#clip0_147_5917)">
<path d="M8.90625 6.48C8.76369 6.39769 8.60197 6.35437 8.43735 6.3544C8.27273 6.35443 8.11103 6.3978 7.96849 6.48015C7.82595 6.5625 7.70762 6.68094 7.62538 6.82354C7.54314 6.96614 7.49989 7.12788 7.5 7.2925V12.7087C7.49989 12.8734 7.54314 13.0351 7.62538 13.1777C7.70762 13.3203 7.82595 13.4387 7.96849 13.5211C8.11103 13.6035 8.27273 13.6468 8.43735 13.6469C8.60197 13.6469 8.76369 13.6036 8.90625 13.5213L14.0625 10.5412C14.1575 10.4864 14.2364 10.4075 14.2912 10.3125C14.3461 10.2175 14.375 10.1097 14.375 10C14.375 9.89029 14.3461 9.78252 14.2912 9.68751C14.2364 9.59251 14.1575 9.51361 14.0625 9.45875L8.90625 6.48ZM0 10C0 7.34784 1.05357 4.8043 2.92893 2.92893C4.8043 1.05357 7.34784 0 10 0C12.6522 0 15.1957 1.05357 17.0711 2.92893C18.9464 4.8043 20 7.34784 20 10C20 12.6522 18.9464 15.1957 17.0711 17.0711C15.1957 18.9464 12.6522 20 10 20C7.34784 20 4.8043 18.9464 2.92893 17.0711C1.05357 15.1957 0 12.6522 0 10V10ZM10 1.25C8.85093 1.25 7.71312 1.47633 6.65152 1.91605C5.58992 2.35578 4.62533 3.0003 3.81282 3.81282C3.0003 4.62533 2.35578 5.58992 1.91605 6.65152C1.47633 7.71312 1.25 8.85093 1.25 10C1.25 11.1491 1.47633 12.2869 1.91605 13.3485C2.35578 14.4101 3.0003 15.3747 3.81282 16.1872C4.62533 16.9997 5.58992 17.6442 6.65152 18.0839C7.71312 18.5237 8.85093 18.75 10 18.75C12.3206 18.75 14.5462 17.8281 16.1872 16.1872C17.8281 14.5462 18.75 12.3206 18.75 10C18.75 7.67936 17.8281 5.45376 16.1872 3.81282C14.5462 2.17187 12.3206 1.25 10 1.25Z" fill="#9B51E0"/>
</g>
<defs>
<clipPath id="clip0_147_5917">
<rect width="20" height="20" fill="white"/>
</clipPath>
</defs>
</svg>
